<svg width="24" height="24" viewBox="0 0 24 24" fill="none" xmlns="http://www.w3.org/2000/svg">
<path d="M8.45832 12C8.45832 12.8054 7.80541 13.4583 6.99999 13.4583C6.19457 13.4583 5.54166 12.8054 5.54166 12C5.54166 11.1946 6.19457 10.5417 6.99999 10.5417C7.80541 10.5417 8.45832 11.1946 8.45832 12ZM13.4583 12C13.4583 12.8054 12.8054 13.4583 12 13.4583C11.1946 13.4583 10.5417 12.8054 10.5417 12C10.5417 11.1946 11.1946 10.5417 12 10.5417C12.8054 10.5417 13.4583 11.1946 13.4583 12ZM17 13.4583C17.8054 13.4583 18.4583 12.8054 18.4583 12C18.4583 11.1946 17.8054 10.5417 17 10.5417C16.1946 10.5417 15.5417 11.1946 15.5417 12C15.5417 12.8054 16.1946 13.4583 17 13.4583Z" fill="#AFAFAF"/>
</svg>
