<svg width="12" height="12" viewBox="0 0 12 12" fill="none" xmlns="http://www.w3.org/2000/svg">
<path d="M6.00001 0C6.27616 0 6.50001 0.223858 6.50001 0.5V4.33333H8.16363C9.17615 4.33333 9.99697 5.15414 9.99697 6.16667V10.2944L11.1467 9.14621C11.3421 8.95108 11.6587 8.95129 11.8538 9.14669C12.0489 9.34208 12.0487 9.65866 11.8533 9.85379L9.85028 11.8541C9.65498 12.0492 9.33858 12.0491 9.14341 11.8539L7.14308 9.85355C6.94782 9.65829 6.94782 9.34171 7.14308 9.14645C7.33834 8.95119 7.65492 8.95119 7.85018 9.14645L8.99697 10.2932V6.16667C8.99697 5.70643 8.62387 5.33333 8.16363 5.33333H3.83328C3.37304 5.33333 2.99995 5.70643 2.99995 6.16667V10.2932L4.14673 9.14645C4.34199 8.95119 4.65858 8.95119 4.85384 9.14645C5.0491 9.34171 5.0491 9.65829 4.85384 9.85355L2.8535 11.8539C2.65824 12.0492 2.34166 12.0492 2.1464 11.8539L0.146023 9.85356C-0.0492412 9.6583 -0.0492444 9.34171 0.146016 9.14645C0.341276 8.95119 0.657859 8.95118 0.853123 9.14644L1.99995 10.2932V6.16667C1.99995 5.15414 2.82076 4.33333 3.83328 4.33333H5.50001V0.5C5.50001 0.223858 5.72387 0 6.00001 0Z" fill="white"/>
</svg>
