<svg width="13" height="12" viewBox="0 0 13 12" fill="none" xmlns="http://www.w3.org/2000/svg">
<path d="M6.50001 0C6.77616 0 7.00001 0.223858 7.00001 0.5V4.33333H8.66363C9.67615 4.33333 10.497 5.15414 10.497 6.16667V10.2944L11.6467 9.14621C11.8421 8.95108 12.1587 8.95129 12.3538 9.14669C12.5489 9.34208 12.5487 9.65866 12.3533 9.85379L10.3503 11.8541C10.155 12.0492 9.83858 12.0491 9.64341 11.8539L7.64308 9.85355C7.44782 9.65829 7.44782 9.34171 7.64308 9.14645C7.83834 8.95119 8.15492 8.95119 8.35018 9.14645L9.49697 10.2932V6.16667C9.49697 5.70643 9.12387 5.33333 8.66363 5.33333H4.33328C3.87304 5.33333 3.49995 5.70643 3.49995 6.16667V10.2932L4.64673 9.14645C4.84199 8.95119 5.15858 8.95119 5.35384 9.14645C5.5491 9.34171 5.5491 9.65829 5.35384 9.85355L3.3535 11.8539C3.15824 12.0492 2.84166 12.0492 2.6464 11.8539L0.646023 9.85356C0.450759 9.6583 0.450756 9.34171 0.646016 9.14645C0.841276 8.95119 1.15786 8.95118 1.35312 9.14644L2.49995 10.2932V6.16667C2.49995 5.15414 3.32076 4.33333 4.33328 4.33333H6.00001V0.5C6.00001 0.223858 6.22387 0 6.50001 0Z" fill="#A3ACA3"/>
</svg>
