<svg width="12" height="16" viewBox="0 0 12 16" fill="none" xmlns="http://www.w3.org/2000/svg">
<path d="M8.83371 3.45341C8.66625 3.67298 8.7085 3.98673 8.92807 4.15419C10.1203 5.06343 10.8333 6.47214 10.8333 8C10.8333 10.4907 8.94945 12.5413 6.52888 12.8047L6.97978 12.3536C7.17505 12.1583 7.17505 11.8417 6.97978 11.6464C6.80227 11.4689 6.5245 11.4528 6.32876 11.598L6.27268 11.6464L4.93934 12.9798C4.76183 13.1573 4.7457 13.4351 4.89093 13.6308L4.93934 13.6869L6.27268 15.0202C6.46794 15.2155 6.78452 15.2155 6.97978 15.0202C7.1573 14.8427 7.17343 14.5649 7.0282 14.3692L6.97978 14.3131L6.47963 13.8139C9.47693 13.57 11.8333 11.0602 11.8333 8C11.8333 6.15685 10.9721 4.45548 9.53449 3.35905C9.31492 3.19159 9.00117 3.23384 8.83371 3.45341ZM5.02022 0.979782C4.82496 1.17504 4.82496 1.49163 5.02022 1.68689L5.51972 2.18616C2.52273 2.4304 0.166672 4.94006 0.166672 8C0.166672 9.76297 0.954177 11.3983 2.28721 12.4994C2.50011 12.6753 2.81527 12.6452 2.99113 12.4323C3.16699 12.2194 3.13697 11.9043 2.92407 11.7284C1.81863 10.8153 1.16667 9.46147 1.16667 8C1.16667 5.50958 3.05022 3.45908 5.47047 3.19535L5.02022 3.64645C4.82496 3.84171 4.82496 4.15829 5.02022 4.35356C5.21549 4.54882 5.53207 4.54882 5.72733 4.35356L7.06066 3.02022C7.25593 2.82496 7.25593 2.50838 7.06066 2.31312L5.72733 0.979782C5.53207 0.78452 5.21549 0.78452 5.02022 0.979782Z" fill="#FA6736"/>
</svg>
