<svg width="16" height="16" viewBox="0 0 16 16" fill="none" xmlns="http://www.w3.org/2000/svg">
<path d="M7.79153 0.5C8.10795 0.5 8.36949 0.735011 8.41094 1.04007L8.41666 1.12487L8.41766 7.16667H14.4619C14.8071 7.16667 15.0869 7.44649 15.0869 7.79167C15.0869 8.10808 14.8518 8.36958 14.5467 8.41096L14.4619 8.41667H8.41766L8.41937 14.4576C8.41944 14.8028 8.13967 15.0827 7.7945 15.0827C7.47808 15.0827 7.21654 14.8477 7.17509 14.5427L7.16937 14.4578L7.16766 8.41667H1.12683C0.781653 8.41667 0.501831 8.13684 0.501831 7.79167C0.501831 7.47525 0.736959 7.21376 1.04202 7.17237L1.12683 7.16667H7.16766L7.16666 1.12513C7.16659 0.779949 7.44635 0.5 7.79153 0.5Z" fill="#04071E"/>
</svg>
