<svg width="11" height="4" viewBox="0 0 11 4" fill="none" xmlns="http://www.w3.org/2000/svg">
<path d="M2.66665 2C2.66665 2.64433 2.14431 3.16667 1.49998 3.16667C0.855647 3.16667 0.333313 2.64433 0.333313 2C0.333313 1.35567 0.855647 0.833336 1.49998 0.833336C2.14431 0.833336 2.66665 1.35567 2.66665 2ZM6.66665 2C6.66665 2.64433 6.14431 3.16667 5.49998 3.16667C4.85565 3.16667 4.33331 2.64433 4.33331 2C4.33331 1.35567 4.85565 0.833336 5.49998 0.833336C6.14431 0.833336 6.66665 1.35567 6.66665 2ZM9.49998 3.16667C10.1443 3.16667 10.6666 2.64433 10.6666 2C10.6666 1.35567 10.1443 0.833336 9.49998 0.833336C8.85565 0.833336 8.33331 1.35567 8.33331 2C8.33331 2.64433 8.85565 3.16667 9.49998 3.16667Z" fill="#AFAFAF"/>
</svg>
